<svg xmlns="http://www.w3.org/2000/svg" xmlns:xlink="http://www.w3.org/1999/xlink" width="220" zoomAndPan="magnify" viewBox="0 0 165 82.499998" height="110" preserveAspectRatio="xMidYMid meet" version="1.0"><defs><clipPath id="3db82d1a59"><path d="M 0.496094 0 L 164.503906 0 L 164.503906 82.003906 L 0.496094 82.003906 Z M 0.496094 0 " clip-rule="nonzero"/></clipPath><clipPath id="80b6f51f12"><path d="M 12.0625 18 L 29 18 L 29 53 L 12.0625 53 Z M 12.0625 18 " clip-rule="nonzero"/></clipPath><clipPath id="acd4542edb"><path d="M 22 53 L 46 53 L 46 65.820312 L 22 65.820312 Z M 22 53 " clip-rule="nonzero"/></clipPath><clipPath id="c2d7e2b57a"><path d="M 13 15.871094 L 55 15.871094 L 55 60 L 13 60 Z M 13 15.871094 " clip-rule="nonzero"/></clipPath><clipPath id="255534757b"><path d="M 145 28 L 152.960938 28 L 152.960938 42 L 145 42 Z M 145 28 " clip-rule="nonzero"/></clipPath></defs><g clip-path="url(#3db82d1a59)"><path fill="#ffffff" d="M 0.496094 0 L 164.503906 0 L 164.503906 82.003906 L 0.496094 82.003906 Z M 0.496094 0 " fill-opacity="1" fill-rule="nonzero"/></g><g clip-path="url(#80b6f51f12)"><path fill="#93c5fd" d="M 13.101562 25.730469 C 12.492188 26.019531 12.027344 26.804688 12.066406 27.476562 L 13.523438 52.003906 L 28.902344 18.222656 Z M 13.101562 25.730469 " fill-opacity="1" fill-rule="nonzero"/></g><path fill="#93c5fd" d="M 55.148438 25.730469 L 39.316406 18.207031 L 54.667969 51.90625 L 56.179688 27.476562 C 56.222656 26.804688 55.757812 26.019531 55.148438 25.730469 Z M 55.148438 25.730469 " fill-opacity="1" fill-rule="nonzero"/><g clip-path="url(#acd4542edb)"><path fill="#93c5fd" d="M 43.363281 53.503906 L 24.964844 53.503906 L 22.617188 59.320312 L 22.574219 59.441406 L 33.074219 65.5625 C 33.65625 65.902344 34.609375 65.902344 35.195312 65.5625 L 45.765625 59.417969 Z M 43.363281 53.503906 " fill-opacity="1" fill-rule="nonzero"/></g><g clip-path="url(#c2d7e2b57a)"><path fill="#ffffff" d="M 45.765625 59.417969 L 53.953125 54.632812 C 54.308594 54.429688 54.535156 54.0625 54.558594 53.65625 L 54.667969 51.90625 C 54.667969 51.90625 39.367188 18.296875 39.367188 18.296875 L 39.316406 18.207031 L 34.65625 15.992188 C 34.320312 15.832031 33.929688 15.832031 33.59375 15.992188 L 28.902344 18.222656 L 13.523438 52.003906 L 13.617188 53.578125 C 13.640625 53.984375 13.867188 54.351562 14.222656 54.558594 L 22.578125 59.429688 L 24.925781 53.613281 L 43.347656 53.5 Z M 45.765625 59.417969 " fill-opacity="1" fill-rule="nonzero"/></g><path fill="#2852c8" d="M 29.0625 58.917969 C 28.246094 58.917969 27.585938 58.265625 27.585938 57.453125 L 27.585938 37.652344 C 27.585938 36.84375 28.246094 36.1875 29.0625 36.1875 C 29.875 36.1875 30.535156 36.84375 30.535156 37.652344 L 30.535156 57.453125 C 30.535156 58.265625 29.875 58.917969 29.0625 58.917969 Z M 29.0625 58.917969 " fill-opacity="1" fill-rule="nonzero"/><path fill="#2852c8" d="M 39.316406 58.917969 C 38.5 58.917969 37.839844 58.265625 37.839844 57.453125 L 37.839844 37.652344 C 37.839844 36.84375 38.5 36.1875 39.316406 36.1875 C 40.128906 36.1875 40.789062 36.84375 40.789062 37.652344 L 40.789062 57.453125 C 40.789062 58.265625 40.128906 58.917969 39.316406 58.917969 Z M 39.316406 58.917969 " fill-opacity="1" fill-rule="nonzero"/><path fill="#2852c8" d="M 34.167969 61.578125 C 33.355469 61.578125 32.695312 60.921875 32.695312 60.113281 L 32.695312 37.652344 C 32.695312 36.84375 33.355469 36.1875 34.167969 36.1875 C 34.984375 36.1875 35.644531 36.84375 35.644531 37.652344 L 35.644531 60.113281 C 35.644531 60.921875 34.984375 61.578125 34.167969 61.578125 Z M 34.167969 61.578125 " fill-opacity="1" fill-rule="nonzero"/><path fill="#2852c8" d="M 41.570312 24.140625 C 39.414062 24.140625 37.496094 25.5 36.789062 27.523438 C 36.523438 28.289062 36.933594 29.121094 37.703125 29.386719 C 38.472656 29.648438 39.3125 29.242188 39.578125 28.480469 C 39.871094 27.636719 40.671875 27.070312 41.570312 27.070312 C 42.734375 27.070312 43.679688 28.007812 43.679688 29.164062 C 43.679688 30.320312 42.734375 31.261719 41.570312 31.261719 L 26.835938 31.261719 C 25.671875 31.261719 24.726562 30.320312 24.726562 29.164062 C 24.726562 28.007812 25.671875 27.070312 26.835938 27.070312 C 27.734375 27.070312 28.535156 27.636719 28.828125 28.480469 C 29.09375 29.246094 29.933594 29.648438 30.703125 29.386719 C 31.472656 29.121094 31.878906 28.285156 31.613281 27.523438 C 30.910156 25.5 28.988281 24.140625 26.835938 24.140625 C 26.597656 24.140625 26.367188 24.15625 26.140625 24.1875 L 22.617188 31.929688 C 23.523438 33.289062 25.074219 34.1875 26.835938 34.1875 L 41.570312 34.1875 C 44.359375 34.1875 46.625 31.933594 46.625 29.164062 C 46.625 26.394531 44.359375 24.140625 41.570312 24.140625 Z M 41.570312 24.140625 " fill-opacity="1" fill-rule="nonzero"/><path fill="#2852c8" d="M 75.632812 23.367188 L 69.335938 41.058594 L 72.378906 41.058594 L 73.738281 37.214844 L 81.226562 37.214844 L 82.554688 41.058594 L 85.625 41.058594 L 79.40625 23.367188 Z M 74.730469 34.40625 L 77.527344 26.488281 L 80.257812 34.40625 Z M 74.730469 34.40625 " fill-opacity="1" fill-rule="nonzero"/><path fill="#2852c8" d="M 97.566406 29.746094 C 97.304688 29.234375 96.914062 28.832031 96.394531 28.539062 C 95.875 28.242188 95.164062 28.09375 94.261719 28.09375 C 93.566406 28.09375 92.894531 28.203125 92.246094 28.421875 C 91.59375 28.636719 90.980469 28.9375 90.410156 29.328125 C 90.101562 29.539062 89.808594 29.769531 89.527344 30.019531 L 89.082031 28.378906 L 86.820312 28.378906 L 86.820312 41.058594 L 89.835938 41.058594 L 89.835938 32.714844 C 90.015625 32.507812 90.214844 32.3125 90.433594 32.132812 C 90.851562 31.796875 91.316406 31.527344 91.828125 31.328125 C 92.339844 31.128906 92.835938 31.03125 93.324219 31.03125 C 93.84375 31.03125 94.28125 31.171875 94.636719 31.457031 C 94.992188 31.742188 95.171875 32.3125 95.171875 33.160156 L 95.171875 41.058594 L 98.1875 41.058594 L 98.1875 33.417969 C 98.1875 32.742188 98.148438 32.089844 98.070312 31.457031 C 97.996094 30.824219 97.824219 30.253906 97.5625 29.742188 Z M 97.566406 29.746094 " fill-opacity="1" fill-rule="nonzero"/><path fill="#2852c8" d="M 109.460938 29.742188 C 109.148438 29.402344 108.789062 29.109375 108.390625 28.863281 C 107.558594 28.351562 106.59375 28.09375 105.503906 28.09375 C 104.339844 28.09375 103.3125 28.355469 102.417969 28.875 C 101.527344 29.394531 100.832031 30.109375 100.335938 31.019531 C 99.84375 31.925781 99.597656 32.996094 99.597656 34.226562 C 99.597656 35.457031 99.847656 36.503906 100.351562 37.421875 C 100.851562 38.339844 101.546875 39.050781 102.429688 39.550781 C 103.316406 40.054688 104.339844 40.304688 105.5 40.304688 C 106.664062 40.304688 107.578125 40.058594 108.402344 39.566406 C 108.648438 39.417969 108.878906 39.25 109.09375 39.066406 L 109.09375 39.941406 C 109.09375 41.1875 108.800781 42.117188 108.222656 42.722656 C 107.640625 43.328125 106.871094 43.628906 105.917969 43.628906 C 105.15625 43.628906 104.53125 43.457031 104.042969 43.109375 C 103.558594 42.765625 103.097656 42.234375 102.664062 41.527344 L 100.351562 42.722656 L 100.558594 43.109375 C 100.957031 43.871094 101.433594 44.484375 101.988281 44.941406 C 102.542969 45.402344 103.15625 45.730469 103.824219 45.929688 C 104.492188 46.128906 105.179688 46.226562 105.890625 46.226562 C 107.125 46.226562 108.203125 45.972656 109.132812 45.460938 C 110.058594 44.949219 110.789062 44.183594 111.316406 43.164062 C 111.847656 42.140625 112.109375 40.886719 112.109375 39.394531 L 112.109375 28.382812 L 109.820312 28.382812 Z M 108.335938 36.734375 C 107.730469 37.382812 106.941406 37.707031 105.96875 37.707031 C 104.996094 37.707031 104.203125 37.382812 103.589844 36.734375 C 102.972656 36.082031 102.664062 35.246094 102.664062 34.226562 C 102.664062 33.203125 102.972656 32.316406 103.589844 31.667969 C 104.203125 31.019531 104.996094 30.695312 105.96875 30.695312 C 106.941406 30.695312 107.730469 31.019531 108.335938 31.667969 C 108.945312 32.316406 109.25 33.160156 109.25 34.199219 C 109.25 35.238281 108.945312 36.082031 108.335938 36.734375 Z M 108.335938 36.734375 " fill-opacity="1" fill-rule="nonzero"/><path fill="#2852c8" d="M 122.675781 36.726562 C 122.503906 36.921875 122.308594 37.109375 122.089844 37.289062 C 121.664062 37.636719 121.207031 37.90625 120.710938 38.097656 C 120.214844 38.285156 119.71875 38.382812 119.214844 38.382812 C 118.710938 38.382812 118.273438 38.238281 117.898438 37.953125 C 117.527344 37.667969 117.339844 37.109375 117.339844 36.277344 L 117.339844 28.378906 L 114.324219 28.378906 L 114.324219 35.992188 C 114.324219 36.683594 114.371094 37.351562 114.464844 37.992188 C 114.5625 38.632812 114.746094 39.203125 115.027344 39.707031 C 115.304688 40.210938 115.722656 40.605469 116.289062 40.902344 C 116.851562 41.195312 117.609375 41.34375 118.5625 41.34375 C 119.203125 41.34375 119.828125 41.234375 120.4375 41.019531 C 121.042969 40.800781 121.625 40.496094 122.179688 40.097656 C 122.46875 39.890625 122.738281 39.667969 122.996094 39.429688 L 123.429688 41.058594 L 125.691406 41.058594 L 125.691406 28.382812 L 122.675781 28.382812 Z M 122.675781 36.726562 " fill-opacity="1" fill-rule="nonzero"/><path fill="#2852c8" d="M 131 36.980469 L 131 23.367188 L 128.035156 23.367188 L 128.035156 38.042969 C 128.035156 38.753906 128.15625 39.339844 128.398438 39.796875 C 128.640625 40.257812 128.972656 40.605469 129.386719 40.835938 C 129.804688 41.070312 130.261719 41.1875 130.765625 41.1875 C 131.042969 41.1875 131.316406 41.171875 131.585938 41.136719 C 131.855469 41.101562 132.09375 41.050781 132.300781 40.980469 L 132.300781 38.410156 C 131.953125 38.410156 131.652344 38.3125 131.390625 38.121094 C 131.128906 37.933594 131 37.550781 131 36.980469 Z M 131 36.980469 " fill-opacity="1" fill-rule="nonzero"/><path fill="#2852c8" d="M 141.445312 28.707031 C 140.710938 28.296875 139.777344 28.09375 138.648438 28.09375 C 137.851562 28.09375 137.050781 28.191406 136.242188 28.382812 C 135.4375 28.570312 134.667969 28.847656 133.941406 29.210938 L 134.851562 31.445312 C 135.476562 31.152344 136.082031 30.949219 136.671875 30.835938 C 137.261719 30.722656 137.800781 30.667969 138.285156 30.667969 C 139.136719 30.667969 139.738281 30.875 140.09375 31.289062 C 140.449219 31.707031 140.625 32.171875 140.625 32.691406 L 140.625 33.632812 C 140.613281 33.621094 140.601562 33.613281 140.585938 33.601562 C 139.832031 33.046875 138.839844 32.769531 137.609375 32.769531 C 136.671875 32.769531 135.847656 32.957031 135.136719 33.328125 C 134.425781 33.699219 133.875 34.207031 133.484375 34.847656 C 133.09375 35.488281 132.898438 36.242188 132.898438 37.109375 C 132.898438 37.972656 133.089844 38.753906 133.472656 39.394531 C 133.851562 40.035156 134.394531 40.53125 135.097656 40.886719 C 135.800781 41.242188 136.636719 41.417969 137.609375 41.417969 C 138.753906 41.417969 139.71875 41.152344 140.507812 40.613281 C 140.710938 40.476562 140.898438 40.320312 141.070312 40.148438 L 141.328125 41.054688 L 143.644531 41.054688 L 143.644531 32.742188 C 143.644531 31.84375 143.460938 31.046875 143.097656 30.351562 C 142.734375 29.660156 142.183594 29.109375 141.445312 28.703125 Z M 139.992188 38.460938 C 139.566406 38.789062 139.007812 38.953125 138.3125 38.953125 C 137.617188 38.953125 137.058594 38.789062 136.632812 38.460938 C 136.207031 38.128906 135.996094 37.679688 135.996094 37.109375 C 135.996094 36.503906 136.207031 36.039062 136.632812 35.71875 C 137.058594 35.398438 137.617188 35.238281 138.3125 35.238281 C 139.007812 35.238281 139.566406 35.398438 139.992188 35.71875 C 140.414062 36.039062 140.628906 36.503906 140.628906 37.109375 C 140.628906 37.679688 140.414062 38.128906 139.992188 38.460938 Z M 139.992188 38.460938 " fill-opacity="1" fill-rule="nonzero"/><g clip-path="url(#255534757b)"><path fill="#2852c8" d="M 152.425781 28.148438 C 152.191406 28.113281 151.945312 28.09375 151.683594 28.09375 C 151.148438 28.09375 150.621094 28.226562 150.109375 28.484375 C 149.597656 28.746094 149.152344 29.054688 148.769531 29.421875 C 148.644531 29.542969 148.527344 29.660156 148.425781 29.773438 L 148.121094 28.382812 L 145.855469 28.382812 L 145.855469 41.058594 L 148.875 41.058594 L 148.875 32.199219 C 149.066406 31.953125 149.292969 31.75 149.550781 31.589844 C 150.125 31.234375 150.984375 31.058594 152.128906 31.058594 L 152.960938 31.058594 L 152.960938 28.328125 C 152.839844 28.242188 152.660156 28.183594 152.425781 28.148438 Z M 152.425781 28.148438 " fill-opacity="1" fill-rule="nonzero"/></g><path fill="#1d3c91" d="M 77.898438 55.484375 L 81.710938 55.484375 L 81.710938 53.328125 L 77.898438 53.328125 L 77.898438 51.46875 L 81.925781 51.46875 L 81.925781 49.308594 L 75.324219 49.308594 L 75.324219 59.671875 L 82.011719 59.671875 L 82.011719 57.515625 L 77.898438 57.515625 Z M 77.898438 55.484375 " fill-opacity="1" fill-rule="nonzero"/><path fill="#1d3c91" d="M 94.15625 49.308594 L 91.328125 49.308594 L 89.597656 52.304688 L 89.226562 52.304688 L 87.441406 49.308594 L 84.527344 49.308594 L 87.640625 54.253906 L 84.242188 59.671875 L 87.070312 59.671875 L 89.085938 56.25 L 89.457031 56.25 L 91.585938 59.671875 L 94.5 59.671875 L 91.023438 54.335938 Z M 94.15625 49.308594 " fill-opacity="1" fill-rule="nonzero"/><path fill="#1d3c91" d="M 103.40625 49.671875 C 102.753906 49.375 101.980469 49.222656 101.085938 49.222656 L 97.070312 49.222656 L 97.070312 59.671875 L 99.726562 59.671875 L 99.726562 56.917969 L 101.085938 56.917969 C 101.980469 56.917969 102.753906 56.765625 103.40625 56.464844 C 104.058594 56.160156 104.558594 55.730469 104.914062 55.171875 C 105.265625 54.613281 105.441406 53.949219 105.441406 53.183594 L 105.441406 52.957031 C 105.441406 52.179688 105.265625 51.515625 104.914062 50.957031 C 104.5625 50.398438 104.058594 49.96875 103.40625 49.671875 Z M 102.554688 53.910156 C 102.421875 54.144531 102.238281 54.328125 102 54.457031 C 101.761719 54.585938 101.480469 54.648438 101.15625 54.648438 L 99.726562 54.648438 L 99.726562 51.496094 L 101.15625 51.496094 C 101.480469 51.496094 101.761719 51.558594 102 51.679688 C 102.238281 51.804688 102.421875 51.984375 102.554688 52.222656 C 102.6875 52.457031 102.753906 52.742188 102.753906 53.074219 C 102.753906 53.402344 102.6875 53.675781 102.554688 53.910156 Z M 102.554688 53.910156 " fill-opacity="1" fill-rule="nonzero"/><path fill="#1d3c91" d="M 110.726562 55.484375 L 114.542969 55.484375 L 114.542969 53.328125 L 110.726562 53.328125 L 110.726562 51.46875 L 114.757812 51.46875 L 114.757812 49.308594 L 108.15625 49.308594 L 108.15625 59.671875 L 114.84375 59.671875 L 114.84375 57.515625 L 110.726562 57.515625 Z M 110.726562 55.484375 " fill-opacity="1" fill-rule="nonzero"/><path fill="#1d3c91" d="M 126.222656 54.9375 C 126.578125 54.421875 126.757812 53.777344 126.757812 53 L 126.757812 52.773438 C 126.757812 51.996094 126.582031 51.347656 126.226562 50.820312 C 125.875 50.296875 125.371094 49.898438 124.714844 49.628906 C 124.058594 49.359375 123.277344 49.222656 122.371094 49.222656 L 118.042969 49.222656 L 118.042969 59.671875 L 120.699219 59.671875 L 120.699219 56.492188 L 122.210938 56.492188 L 124.328125 59.671875 L 127.386719 59.671875 L 124.832031 56.046875 C 125.421875 55.789062 125.886719 55.417969 126.222656 54.9375 Z M 120.699219 51.4375 L 122.527344 51.4375 C 122.84375 51.4375 123.113281 51.5 123.34375 51.621094 C 123.570312 51.746094 123.75 51.921875 123.878906 52.148438 C 124.007812 52.375 124.070312 52.644531 124.070312 52.957031 C 124.070312 53.269531 124.007812 53.527344 123.878906 53.753906 C 123.75 53.980469 123.570312 54.15625 123.34375 54.277344 C 123.113281 54.402344 122.84375 54.460938 122.527344 54.460938 L 120.699219 54.460938 Z M 120.699219 51.4375 " fill-opacity="1" fill-rule="nonzero"/><path fill="#1d3c91" d="M 128.957031 51.609375 L 131.816406 51.609375 L 131.816406 59.671875 L 134.472656 59.671875 L 134.472656 51.609375 L 137.328125 51.609375 L 137.328125 49.308594 L 128.957031 49.308594 Z M 128.957031 51.609375 " fill-opacity="1" fill-rule="nonzero"/><path fill="#1d3c91" d="M 147.402344 54.917969 C 147.058594 54.453125 146.585938 54.085938 145.988281 53.816406 C 145.386719 53.546875 144.695312 53.378906 143.914062 53.3125 L 143.242188 53.257812 C 142.796875 53.21875 142.480469 53.105469 142.300781 52.914062 C 142.121094 52.726562 142.03125 52.5 142.03125 52.234375 C 142.03125 52.035156 142.078125 51.855469 142.179688 51.695312 C 142.277344 51.535156 142.425781 51.40625 142.621094 51.320312 C 142.816406 51.230469 143.058594 51.183594 143.34375 51.183594 C 143.648438 51.183594 143.90625 51.238281 144.121094 51.347656 C 144.335938 51.457031 144.5 51.605469 144.617188 51.792969 C 144.730469 51.984375 144.785156 52.191406 144.785156 52.417969 L 147.359375 52.417969 C 147.359375 51.738281 147.199219 51.140625 146.886719 50.625 C 146.570312 50.109375 146.117188 49.707031 145.523438 49.425781 C 144.925781 49.140625 144.199219 49 143.34375 49 C 142.550781 49 141.867188 49.125 141.285156 49.382812 C 140.707031 49.636719 140.253906 50.007812 139.9375 50.488281 C 139.617188 50.972656 139.457031 51.554688 139.457031 52.234375 C 139.457031 53.191406 139.777344 53.957031 140.414062 54.535156 C 141.050781 55.113281 141.910156 55.449219 142.988281 55.542969 L 143.65625 55.601562 C 144.265625 55.648438 144.703125 55.753906 144.957031 55.921875 C 145.214844 56.085938 145.34375 56.320312 145.34375 56.625 C 145.34375 56.859375 145.273438 57.0625 145.136719 57.234375 C 145 57.402344 144.796875 57.535156 144.535156 57.628906 C 144.273438 57.726562 143.957031 57.773438 143.585938 57.773438 C 143.160156 57.773438 142.804688 57.714844 142.53125 57.601562 C 142.253906 57.488281 142.046875 57.332031 141.910156 57.125 C 141.769531 56.921875 141.699219 56.699219 141.699219 56.453125 L 139.128906 56.453125 C 139.128906 57.132812 139.296875 57.738281 139.636719 58.261719 C 139.976562 58.789062 140.472656 59.203125 141.136719 59.503906 C 141.796875 59.808594 142.617188 59.960938 143.585938 59.960938 C 144.492188 59.960938 145.265625 59.820312 145.910156 59.546875 C 146.550781 59.273438 147.046875 58.886719 147.394531 58.382812 C 147.742188 57.882812 147.914062 57.296875 147.914062 56.621094 C 147.914062 55.949219 147.742188 55.382812 147.402344 54.917969 Z M 147.402344 54.917969 " fill-opacity="1" fill-rule="nonzero"/></svg>