<svg xmlns="http://www.w3.org/2000/svg" xmlns:xlink="http://www.w3.org/1999/xlink" width="220" zoomAndPan="magnify" viewBox="0 0 165 82.499998" height="110" preserveAspectRatio="xMidYMid meet" version="1.0"><defs><clipPath id="6f048d7159"><path d="M 0.496094 0 L 164.503906 0 L 164.503906 82.003906 L 0.496094 82.003906 Z M 0.496094 0 " clip-rule="nonzero"/></clipPath></defs><g clip-path="url(#6f048d7159)"><path fill="#ffffff" d="M 0.496094 0 L 164.503906 0 L 164.503906 82.003906 L 0.496094 82.003906 Z M 0.496094 0 " fill-opacity="1" fill-rule="nonzero"/></g><path fill="#002f56" d="M 87.324219 46.867188 L 78.890625 33.6875 L 78.878906 44.761719 L 64.351562 20.300781 L 54.128906 20.300781 L 54.128906 61.59375 L 64.234375 61.59375 L 64.269531 37.164062 L 78.648438 60.5 Z M 87.324219 46.867188 " fill-opacity="1" fill-rule="nonzero"/><path fill="#002f56" d="M 78.894531 30.914062 L 88.988281 30.914062 L 89.011719 30.796875 L 89.011719 20.300781 L 78.90625 20.300781 L 78.890625 30.796875 Z M 78.894531 30.914062 " fill-opacity="1" fill-rule="nonzero"/><path fill="#143055" d="M 104.589844 42.363281 C 102.171875 42.316406 99.988281 43.800781 99.136719 46.0625 C 100.550781 43.945312 103.25 43.09375 105.625 44.015625 C 106.722656 44.464844 108.164062 45.183594 109.308594 44.800781 C 108.21875 43.273438 106.464844 42.367188 104.589844 42.363281 Z M 104.589844 42.363281 " fill-opacity="1" fill-rule="nonzero"/><path fill="#143055" d="M 116.042969 47.332031 C 116.042969 46.09375 115.371094 45.808594 113.972656 45.300781 C 112.9375 44.9375 111.761719 44.53125 110.90625 43.414062 C 110.738281 43.195312 110.582031 42.945312 110.417969 42.679688 C 110.046875 41.996094 109.546875 41.390625 108.941406 40.902344 C 108.125 40.304688 107.054688 40.011719 105.667969 40.011719 C 102.886719 40.011719 100.378906 41.691406 99.320312 44.265625 C 100.660156 42.40625 102.886719 41.398438 105.167969 41.621094 C 107.449219 41.839844 109.445312 43.257812 110.402344 45.339844 C 110.878906 46.128906 111.824219 46.507812 112.714844 46.265625 C 114.078125 45.972656 113.984375 47.261719 116.046875 47.699219 Z M 116.042969 47.332031 " fill-opacity="1" fill-rule="nonzero"/><path fill="#002f56" d="M 120.542969 47.066406 L 120.542969 47.039062 C 120.511719 38.851562 113.863281 31.84375 105.667969 31.84375 C 100.664062 31.839844 95.996094 34.359375 93.246094 38.539062 L 93.191406 38.449219 L 88.984375 31.84375 L 78.894531 31.84375 L 88.484375 46.863281 L 79.125 61.59375 L 88.929688 61.59375 L 93.191406 55.042969 L 97.535156 61.59375 L 107.339844 61.59375 L 98.449219 47.601562 C 98.300781 47.332031 98.21875 47.027344 98.214844 46.714844 C 98.214844 44.742188 99 42.84375 100.394531 41.449219 C 101.792969 40.050781 103.6875 39.265625 105.664062 39.265625 C 109.785156 39.265625 110.472656 41.730469 111.363281 42.890625 C 113.117188 45.175781 116.621094 44.175781 116.621094 47.15625 C 116.632812 47.855469 117.015625 48.496094 117.625 48.835938 C 118.234375 49.175781 118.980469 49.164062 119.582031 48.804688 C 120.179688 48.449219 120.542969 47.796875 120.535156 47.097656 L 120.535156 47.066406 Z M 120.542969 47.066406 " fill-opacity="1" fill-rule="nonzero"/><path fill="#002f56" d="M 120.550781 49.175781 C 120.652344 49.871094 120.554688 50.582031 120.269531 51.226562 C 119.707031 52.519531 118.777344 52.085938 118.777344 52.085938 C 118.777344 52.085938 117.972656 51.695312 118.460938 50.945312 C 119.003906 50.109375 120.070312 50.207031 120.550781 49.175781 Z M 120.550781 49.175781 " fill-opacity="1" fill-rule="nonzero"/></svg>